<svg width="35" height="35" fill="none" viewBox="0 0 25 25" xmlns="http://www.w3.org/2000/svg"><path fill-rule="evenodd" clip-rule="evenodd" d="M12.663 1.5h-1.326c-1.069 0-1.49.09-1.921.27-.432.181-.792.453-1.084.82-.292.365-.493.746-.784 1.774L7.368 5H5a1 1 0 000 2h.5l.844 12.666A2.5 2.5 0 008.84 22h6.322a2.5 2.5 0 002.495-2.334L18.5 7.001V7h.5a1 1 0 100-2h-2.367l-.18-.636c-.292-1.028-.493-1.409-.785-1.775a2.694 2.694 0 00-1.084-.819c-.431-.18-.852-.27-1.92-.27zm1.89 3.5l-.025-.09c-.203-.717-.29-.905-.424-1.074a.696.696 0 00-.292-.221c-.2-.084-.404-.115-1.149-.115h-1.326c-.745 0-.95.031-1.149.115a.696.696 0 00-.292.221c-.135.169-.221.357-.424 1.074L9.446 5h5.108zm1.943 2H7.505l.835 12.533a.5.5 0 00.499.467h6.322a.5.5 0 00.499-.467L16.496 7zM9.4 9.63a.85.85 0 011.699-.059l.272 7.795a.85.85 0 11-1.7.06L9.4 9.63zm4.381-.879a.85.85 0 00-.88.82l-.271 7.795a.85.85 0 101.699.06L14.6 9.63a.85.85 0 00-.82-.88z"></path></svg>